<svg id="Layer_1" data-name="Layer 1" xmlns="http://www.w3.org/2000/svg" xmlns:xlink="http://www.w3.org/1999/xlink" viewBox="0 0 1082 362"><defs><style>.cls-1,.cls-10,.cls-11,.cls-12,.cls-13,.cls-7,.cls-8,.cls-9{fill:none;}.cls-2{clip-path:url(#clip-path);}.cls-3,.cls-5{fill:#fff;}.cls-3{stroke:#d1d5da;stroke-width:2px;}.cls-10,.cls-11,.cls-12,.cls-13,.cls-3,.cls-7,.cls-8,.cls-9{stroke-miterlimit:10;}.cls-4{fill:#0069ff;}.cls-6{fill:#24292e;}.cls-10,.cls-11,.cls-12,.cls-13,.cls-7,.cls-8,.cls-9{stroke:#fff;stroke-linecap:round;stroke-width:12px;}.cls-7{opacity:0.09;}.cls-8{opacity:0.14;}.cls-9{opacity:0.13;}.cls-10{opacity:0.17;}.cls-11{opacity:0.12;}.cls-12{opacity:0.08;}.cls-13{opacity:0.2;}</style><clipPath id="clip-path" transform="translate(1 1)"><rect class="cls-1" width="1080" height="360" rx="8" ry="8"/></clipPath></defs><title>Header</title><g class="cls-2"><rect class="cls-3" x="1" y="1" width="1080" height="360" rx="8" ry="8"/><polygon class="cls-4" points="511 361 1 361 1 1 571 1 511 361"/><rect class="cls-5" x="54" y="133" width="600" height="96" rx="48" ry="48"/><path class="cls-4" d="M88.16,202.54a25,25,0,0,1-9.79-9.29,27.09,27.09,0,0,1,0-26.85,25,25,0,0,1,9.79-9.29,29.15,29.15,0,0,1,14-3.35,29.46,29.46,0,0,1,11.84,2.3,23.76,23.76,0,0,1,8.89,6.63l-7.48,6.91a16.1,16.1,0,0,0-12.68-5.9,16.8,16.8,0,0,0-8.35,2.05,14.57,14.57,0,0,0-5.72,5.72,18,18,0,0,0,0,16.7,14.59,14.59,0,0,0,5.72,5.73,16.8,16.8,0,0,0,8.35,2,16,16,0,0,0,12.68-6l7.48,6.91a23.23,23.23,0,0,1-8.92,6.69,29.62,29.62,0,0,1-11.88,2.31A29,29,0,0,1,88.16,202.54Z" transform="translate(1 1)"/><path class="cls-4" d="M136,203a18.89,18.89,0,0,1-7.59-7.09,20.71,20.71,0,0,1,0-20.59,18.89,18.89,0,0,1,7.59-7.09,24.76,24.76,0,0,1,21.93,0,19.06,19.06,0,0,1,7.56,7.09,20.78,20.78,0,0,1,0,20.59A19.06,19.06,0,0,1,158,203,24.76,24.76,0,0,1,136,203Zm18.08-9.57a12.41,12.41,0,0,0,0-15.63,10.14,10.14,0,0,0-14.22,0,12.27,12.27,0,0,0,0,15.63,10.14,10.14,0,0,0,14.22,0Z" transform="translate(1 1)"/><path class="cls-4" d="M236.92,170q4.28,4.27,4.28,12.85V205H230V184.58q0-4.62-1.91-6.88a6.72,6.72,0,0,0-5.44-2.27,8,8,0,0,0-6.26,2.56c-1.54,1.7-2.3,4.23-2.3,7.59V205H202.82V184.58q0-9.15-7.34-9.15a7.9,7.9,0,0,0-6.19,2.56q-2.31,2.55-2.31,7.59V205H175.75V166.29h10.73v4.46a14.12,14.12,0,0,1,5.29-3.74,17.72,17.72,0,0,1,6.88-1.3,16.62,16.62,0,0,1,7.41,1.62,13.07,13.07,0,0,1,5.33,4.72,15.88,15.88,0,0,1,6-4.68,18.91,18.91,0,0,1,8-1.66Q232.64,165.71,236.92,170Z" transform="translate(1 1)"/><path class="cls-4" d="M284,168.2a17.74,17.74,0,0,1,6.95,7,23,23,0,0,1,0,20.95,17.83,17.83,0,0,1-6.95,7,19.78,19.78,0,0,1-9.83,2.48q-7.41,0-11.66-4.68V219H251.28v-52.7H262v4.46q4.17-5,12.16-5A19.68,19.68,0,0,1,284,168.2Zm-4.68,25.27a12.41,12.41,0,0,0,0-15.63,10.09,10.09,0,0,0-14.18,0,12.41,12.41,0,0,0,0,15.63,10.09,10.09,0,0,0,14.18,0Z" transform="translate(1 1)"/><path class="cls-4" d="M301,151.6h11.23V205H301Z" transform="translate(1 1)"/><path class="cls-4" d="M360.36,188.82H331.05a9.13,9.13,0,0,0,3.75,5.69,12.4,12.4,0,0,0,7.34,2.09,14.89,14.89,0,0,0,5.37-.9,13.11,13.11,0,0,0,4.35-2.84l6,6.47q-5.47,6.27-16,6.27A25.22,25.22,0,0,1,330.26,203a18.63,18.63,0,0,1-7.77-7.09,19.46,19.46,0,0,1-2.74-10.29,19.75,19.75,0,0,1,2.7-10.26,18.85,18.85,0,0,1,7.42-7.13,22.93,22.93,0,0,1,20.84-.11,17.91,17.91,0,0,1,7.24,7,21,21,0,0,1,2.62,10.62C360.57,185.94,360.5,187,360.36,188.82Zm-26.28-12.45a9.18,9.18,0,0,0-3.17,5.9H350a9.32,9.32,0,0,0-3.17-5.87,9.48,9.48,0,0,0-6.33-2.19A9.67,9.67,0,0,0,334.08,176.37Z" transform="translate(1 1)"/><path class="cls-4" d="M393.05,203.15A11.64,11.64,0,0,1,389,205a21,21,0,0,1-5.08.61q-6.91,0-10.69-3.53t-3.78-10.37V175.79h-6v-8.64h6v-9.43h11.23v9.43h9.65v8.64h-9.65v15.77a5.29,5.29,0,0,0,1.26,3.78,4.67,4.67,0,0,0,3.57,1.33,7.22,7.22,0,0,0,4.53-1.44Z" transform="translate(1 1)"/><path class="cls-4" d="M400,159.09a6.09,6.09,0,0,1,0-8.93,7.1,7.1,0,0,1,5-1.8,7.33,7.33,0,0,1,5,1.73,5.55,5.55,0,0,1,1.94,4.32,6.12,6.12,0,0,1-1.94,4.64,7,7,0,0,1-5,1.84A7.1,7.1,0,0,1,400,159.09Zm-.58,7.2h11.23V205H399.38Z" transform="translate(1 1)"/><path class="cls-4" d="M428.5,203a18.89,18.89,0,0,1-7.59-7.09,20.71,20.71,0,0,1,0-20.59,18.89,18.89,0,0,1,7.59-7.09,24.76,24.76,0,0,1,21.93,0,19.06,19.06,0,0,1,7.56,7.09A20.78,20.78,0,0,1,458,196a19.06,19.06,0,0,1-7.56,7.09,24.76,24.76,0,0,1-21.93,0Zm18.08-9.57a12.41,12.41,0,0,0,0-15.63,9.36,9.36,0,0,0-7.09-2.91,9.47,9.47,0,0,0-7.13,2.91,12.27,12.27,0,0,0,0,15.63,9.47,9.47,0,0,0,7.13,2.91A9.36,9.36,0,0,0,446.58,193.47Z" transform="translate(1 1)"/><path class="cls-4" d="M503.38,170q4.44,4.32,4.43,12.82V205H496.58V184.58q0-4.62-2-6.88a7.42,7.42,0,0,0-5.84-2.27,9,9,0,0,0-6.77,2.63c-1.68,1.75-2.51,4.36-2.51,7.81V205H468.21V166.29h10.73v4.53a15,15,0,0,1,5.55-3.78,19.43,19.43,0,0,1,7.27-1.33Q499,165.71,503.38,170Z" transform="translate(1 1)"/><path class="cls-4" d="M518.54,159.09a6.11,6.11,0,0,1,0-8.93,7.14,7.14,0,0,1,5-1.8,7.33,7.33,0,0,1,5,1.73,5.52,5.52,0,0,1,1.94,4.32,6.08,6.08,0,0,1-1.94,4.64,7,7,0,0,1-5,1.84A7.14,7.14,0,0,1,518.54,159.09Zm-.58,7.2H529.2V205H518Z" transform="translate(1 1)"/><path class="cls-4" d="M543.24,204.41a24.61,24.61,0,0,1-7.35-3l3.75-8.06a23.65,23.65,0,0,0,6.26,2.7,26.12,26.12,0,0,0,7.2,1q7.13,0,7.13-3.52a2.5,2.5,0,0,0-2-2.38,28.26,28.26,0,0,0-6-1.22,58,58,0,0,1-7.85-1.66A12.17,12.17,0,0,1,539.1,185c-1.52-1.59-2.27-3.84-2.27-6.77a10.65,10.65,0,0,1,2.12-6.52,13.77,13.77,0,0,1,6.19-4.43,26.64,26.64,0,0,1,9.62-1.58,37.73,37.73,0,0,1,8.17.9,23.07,23.07,0,0,1,6.73,2.48l-3.74,8a22.36,22.36,0,0,0-11.16-2.88,11.39,11.39,0,0,0-5.4,1,3,3,0,0,0-1.8,2.6,2.57,2.57,0,0,0,1.94,2.52,35.2,35.2,0,0,0,6.19,1.37,64.91,64.91,0,0,1,7.78,1.69,11.67,11.67,0,0,1,5.25,3.27,9.32,9.32,0,0,1,2.24,6.63,10.25,10.25,0,0,1-2.16,6.41,13.78,13.78,0,0,1-6.3,4.35,28.13,28.13,0,0,1-9.83,1.55A37.67,37.67,0,0,1,543.24,204.41Z" transform="translate(1 1)"/><path class="cls-4" d="M602.85,203.15a11.48,11.48,0,0,1-4.07,1.84,21,21,0,0,1-5.07.61q-6.91,0-10.69-3.53t-3.78-10.37V175.79h-6v-8.64h6v-9.43h11.23v9.43h9.65v8.64h-9.65v15.77a5.29,5.29,0,0,0,1.26,3.78,4.65,4.65,0,0,0,3.56,1.33,7.23,7.23,0,0,0,4.54-1.44Z" transform="translate(1 1)"/><path class="cls-6" d="M748.92,175.33a5.47,5.47,0,0,1,1.61,4.31V187H747V185.4c-.71,1.2-2,1.8-3.94,1.8a6.22,6.22,0,0,1-2.58-.5,3.86,3.86,0,0,1-1.67-1.4,3.63,3.63,0,0,1-.57-2,3.36,3.36,0,0,1,1.35-2.83,6.91,6.91,0,0,1,4.19-1h3a2.38,2.38,0,0,0-.75-1.88,3.26,3.26,0,0,0-2.23-.66,6.73,6.73,0,0,0-2,.32,5.4,5.4,0,0,0-1.69.88l-1.34-2.62a8.08,8.08,0,0,1,2.53-1.15,11.36,11.36,0,0,1,3-.41A6.73,6.73,0,0,1,748.92,175.33Zm-3.19,8.91a2.47,2.47,0,0,0,1.06-1.31v-1.32h-2.57c-1.54,0-2.31.5-2.31,1.51a1.34,1.34,0,0,0,.57,1.14,2.53,2.53,0,0,0,1.55.42A3.31,3.31,0,0,0,745.73,184.24Z" transform="translate(1 1)"/><path class="cls-6" d="M766.92,174.1V187h-3.55v-1.54a5.06,5.06,0,0,1-1.78,1.29,5.65,5.65,0,0,1-2.23.44,5.52,5.52,0,0,1-4-1.46,5.87,5.87,0,0,1-1.49-4.35V174.1h3.75v6.74q0,3.12,2.61,3.12a2.78,2.78,0,0,0,2.16-.88,3.65,3.65,0,0,0,.82-2.6V174.1Z" transform="translate(1 1)"/><path class="cls-6" d="M778.73,186.38a3.79,3.79,0,0,1-1.36.62,7.11,7.11,0,0,1-1.69.2,5,5,0,0,1-3.56-1.18,4.48,4.48,0,0,1-1.26-3.45v-5.31h-2v-2.88h2v-3.14h3.74v3.14h3.22v2.88H774.6v5.26a1.78,1.78,0,0,0,.42,1.26,1.55,1.55,0,0,0,1.19.44,2.39,2.39,0,0,0,1.51-.48Z" transform="translate(1 1)"/><path class="cls-6" d="M782.92,186.35a6.29,6.29,0,0,1-2.53-2.37,6.85,6.85,0,0,1,0-6.86,6.2,6.2,0,0,1,2.53-2.36,8.2,8.2,0,0,1,7.31,0,6.3,6.3,0,0,1,2.52,2.36,6.92,6.92,0,0,1,0,6.86,6.39,6.39,0,0,1-2.52,2.37,8.28,8.28,0,0,1-7.31,0Zm6-3.19a4.11,4.11,0,0,0,0-5.21,3.09,3.09,0,0,0-2.36-1,3.17,3.17,0,0,0-2.38,1,4.11,4.11,0,0,0,0,5.21,3.2,3.2,0,0,0,2.38,1A3.13,3.13,0,0,0,788.94,183.16Z" transform="translate(1 1)"/><path class="cls-6" d="M798.69,186.35a6.37,6.37,0,0,1-3.5-5.8,6.42,6.42,0,0,1,.93-3.43,6.25,6.25,0,0,1,2.57-2.36,7.89,7.89,0,0,1,3.7-.86,7.2,7.2,0,0,1,3.57.86,5.09,5.09,0,0,1,2.22,2.43l-2.91,1.56a3.17,3.17,0,0,0-2.9-1.77,3.27,3.27,0,0,0-2.42,1,4,4,0,0,0,0,5.23,3.27,3.27,0,0,0,2.42,1,3.12,3.12,0,0,0,2.9-1.78l2.91,1.59a5.25,5.25,0,0,1-2.22,2.4,7.2,7.2,0,0,1-3.57.86A7.88,7.88,0,0,1,798.69,186.35Z" transform="translate(1 1)"/><path class="cls-6" d="M812.65,186.35a6.36,6.36,0,0,1-2.53-2.37,6.92,6.92,0,0,1,0-6.86,6.26,6.26,0,0,1,2.53-2.36,8.2,8.2,0,0,1,7.31,0,6.3,6.3,0,0,1,2.52,2.36,6.92,6.92,0,0,1,0,6.86,6.39,6.39,0,0,1-2.52,2.37,8.28,8.28,0,0,1-7.31,0Zm6-3.19a4.15,4.15,0,0,0,0-5.21,3.38,3.38,0,0,0-4.74,0,4.08,4.08,0,0,0,0,5.21,3.38,3.38,0,0,0,4.74,0Z" transform="translate(1 1)"/><path class="cls-6" d="M846.28,175.33a5.83,5.83,0,0,1,1.43,4.29V187H844v-6.82a3.52,3.52,0,0,0-.63-2.29,2.27,2.27,0,0,0-1.82-.76,2.68,2.68,0,0,0-2.09.86,3.66,3.66,0,0,0-.76,2.53V187h-3.75v-6.82c0-2-.81-3.05-2.45-3.05a2.63,2.63,0,0,0-2.06.86,3.66,3.66,0,0,0-.77,2.53V187h-3.74V174.1h3.57v1.48a4.73,4.73,0,0,1,1.77-1.24,5.88,5.88,0,0,1,2.29-.44,5.53,5.53,0,0,1,2.47.54,4.38,4.38,0,0,1,1.78,1.58,5.13,5.13,0,0,1,2-1.56,6.29,6.29,0,0,1,2.65-.56A5.22,5.22,0,0,1,846.28,175.33Z" transform="translate(1 1)"/><path class="cls-6" d="M862,174.73a5.91,5.91,0,0,1,2.32,2.33,7.67,7.67,0,0,1,0,7,5.91,5.91,0,0,1-2.32,2.33,6.57,6.57,0,0,1-3.27.83,5,5,0,0,1-3.89-1.56v6h-3.75V174.1h3.58v1.48a5,5,0,0,1,4.06-1.68A6.57,6.57,0,0,1,862,174.73Zm-1.56,8.43a4.11,4.11,0,0,0,0-5.21,3.09,3.09,0,0,0-2.36-1,3.13,3.13,0,0,0-2.37,1,4.15,4.15,0,0,0,0,5.21,3.17,3.17,0,0,0,2.37,1A3.13,3.13,0,0,0,860.41,183.16Z" transform="translate(1 1)"/><path class="cls-6" d="M867.63,169.2h3.74V187h-3.74Z" transform="translate(1 1)"/><path class="cls-6" d="M887.42,181.61h-9.76a3,3,0,0,0,1.25,1.89,4.07,4.07,0,0,0,2.44.7,4.94,4.94,0,0,0,1.79-.3,4.38,4.38,0,0,0,1.45-1l2,2.16a6.68,6.68,0,0,1-5.32,2.09,8.42,8.42,0,0,1-3.87-.85A6.27,6.27,0,0,1,874.8,184a6.47,6.47,0,0,1-.91-3.43,6.62,6.62,0,0,1,.9-3.42,6.26,6.26,0,0,1,2.47-2.37,7.61,7.61,0,0,1,7,0,5.9,5.9,0,0,1,2.41,2.34,6.94,6.94,0,0,1,.88,3.54C887.5,180.65,887.47,181,887.42,181.61Zm-8.75-4.15a3,3,0,0,0-1.06,2H884a3.1,3.1,0,0,0-1.06-1.95,3.13,3.13,0,0,0-2.11-.73A3.19,3.19,0,0,0,878.67,177.46Z" transform="translate(1 1)"/><path class="cls-6" d="M898.32,186.38A3.79,3.79,0,0,1,897,187a7.11,7.11,0,0,1-1.69.2,5,5,0,0,1-3.56-1.18,4.48,4.48,0,0,1-1.26-3.45v-5.31h-2v-2.88h2v-3.14h3.74v3.14h3.22v2.88h-3.22v5.26a1.78,1.78,0,0,0,.42,1.26,1.55,1.55,0,0,0,1.19.44,2.39,2.39,0,0,0,1.51-.48Z" transform="translate(1 1)"/><path class="cls-6" d="M912.6,181.61h-9.77a3,3,0,0,0,1.25,1.89,4.1,4.1,0,0,0,2.45.7,5,5,0,0,0,1.79-.3,4.38,4.38,0,0,0,1.45-1l2,2.16a6.71,6.71,0,0,1-5.33,2.09,8.4,8.4,0,0,1-3.86-.85A6.21,6.21,0,0,1,900,184a6.47,6.47,0,0,1-.92-3.43,6.72,6.72,0,0,1,.9-3.42,6.28,6.28,0,0,1,2.48-2.37,7.59,7.59,0,0,1,6.94,0,5.93,5.93,0,0,1,2.42,2.34,7,7,0,0,1,.87,3.54C912.67,180.65,912.65,181,912.6,181.61Zm-8.76-4.15a3,3,0,0,0-1.05,2h6.35a3,3,0,0,0-1-1.95,3.15,3.15,0,0,0-2.11-.73A3.24,3.24,0,0,0,903.84,177.46Z" transform="translate(1 1)"/><path class="cls-6" d="M934.54,181.61h-9.77A3,3,0,0,0,926,183.5a4.07,4.07,0,0,0,2.44.7,4.94,4.94,0,0,0,1.79-.3,4.28,4.28,0,0,0,1.45-1l2,2.16a6.72,6.72,0,0,1-5.33,2.09,8.42,8.42,0,0,1-3.87-.85,6.27,6.27,0,0,1-2.59-2.37,6.47,6.47,0,0,1-.91-3.43,6.62,6.62,0,0,1,.9-3.42,6.26,6.26,0,0,1,2.47-2.37,7.61,7.61,0,0,1,7,0,5.9,5.9,0,0,1,2.41,2.34,6.94,6.94,0,0,1,.88,3.54C934.61,180.65,934.58,181,934.54,181.61Zm-8.76-4.15a3,3,0,0,0-1.06,2h6.36a3.1,3.1,0,0,0-1.06-1.95,3.13,3.13,0,0,0-2.11-.73A3.19,3.19,0,0,0,925.78,177.46Z" transform="translate(1 1)"/><path class="cls-6" d="M948.83,175.34a5.74,5.74,0,0,1,1.47,4.28V187h-3.74v-6.82a3.35,3.35,0,0,0-.67-2.29,2.49,2.49,0,0,0-1.95-.76,3,3,0,0,0-2.25.88,3.61,3.61,0,0,0-.84,2.6V187H937.1V174.1h3.58v1.51a4.84,4.84,0,0,1,1.85-1.26,6.32,6.32,0,0,1,2.42-.45A5.33,5.33,0,0,1,948.83,175.34Z" transform="translate(1 1)"/><path class="cls-6" d="M967.15,174.1v10.75c0,2.37-.61,4.13-1.85,5.28a7.63,7.63,0,0,1-5.4,1.73,13.7,13.7,0,0,1-3.55-.46,7.57,7.57,0,0,1-2.78-1.32l1.49-2.69a6,6,0,0,0,2.06,1.07,8.32,8.32,0,0,0,2.5.4,4,4,0,0,0,2.86-.88,3.47,3.47,0,0,0,.93-2.65v-.55a5.25,5.25,0,0,1-4.08,1.6,6.82,6.82,0,0,1-3.25-.78,5.88,5.88,0,0,1-2.34-2.19,6.56,6.56,0,0,1,0-6.53,5.9,5.9,0,0,1,2.34-2.2,6.82,6.82,0,0,1,3.25-.78,5.14,5.14,0,0,1,4.27,1.85V174.1Zm-4.64,8.34a3.25,3.25,0,0,0,0-4.59,3.47,3.47,0,0,0-2.44-.87,3.51,3.51,0,0,0-2.45.87,3.22,3.22,0,0,0,0,4.59,3.51,3.51,0,0,0,2.45.87A3.47,3.47,0,0,0,962.51,182.44Z" transform="translate(1 1)"/><path class="cls-6" d="M970.82,171.7a2.05,2.05,0,0,1,0-3,2.69,2.69,0,0,1,3.36,0,1.81,1.81,0,0,1,.65,1.44,2,2,0,0,1-.65,1.54,2.34,2.34,0,0,1-1.68.62A2.4,2.4,0,0,1,970.82,171.7Zm-.19,2.4h3.75V187h-3.75Z" transform="translate(1 1)"/><path class="cls-6" d="M989.58,175.34a5.74,5.74,0,0,1,1.48,4.28V187h-3.75v-6.82a3.35,3.35,0,0,0-.67-2.29,2.49,2.49,0,0,0-1.94-.76,3,3,0,0,0-2.26.88,3.61,3.61,0,0,0-.84,2.6V187h-3.74V174.1h3.57v1.51a4.84,4.84,0,0,1,1.85-1.26,6.36,6.36,0,0,1,2.42-.45A5.32,5.32,0,0,1,989.58,175.34Z" transform="translate(1 1)"/><path class="cls-6" d="M1007.16,181.61h-9.77a3,3,0,0,0,1.25,1.89,4.08,4.08,0,0,0,2.45.7,5,5,0,0,0,1.79-.3,4.38,4.38,0,0,0,1.45-1l2,2.16a6.71,6.71,0,0,1-5.33,2.09,8.4,8.4,0,0,1-3.86-.85,6.21,6.21,0,0,1-2.59-2.37,6.47,6.47,0,0,1-.92-3.43,6.62,6.62,0,0,1,.9-3.42,6.28,6.28,0,0,1,2.48-2.37,7.59,7.59,0,0,1,6.94,0,5.93,5.93,0,0,1,2.42,2.34,7,7,0,0,1,.87,3.54C1007.23,180.65,1007.21,181,1007.16,181.61Zm-8.76-4.15a3,3,0,0,0-1.06,2h6.36a3.09,3.09,0,0,0-1.05-1.95,3.15,3.15,0,0,0-2.11-.73A3.24,3.24,0,0,0,998.4,177.46Z" transform="translate(1 1)"/><line class="cls-7" x1="19" y1="19" x2="369" y2="19"/><line class="cls-8" x1="19" y1="43" x2="447" y2="43"/><line class="cls-9" x1="19" y1="67" x2="293" y2="67"/><line class="cls-7" x1="19" y1="91" x2="280" y2="91"/><line class="cls-10" x1="19" y1="115" x2="485" y2="115"/><line class="cls-11" x1="19" y1="343" x2="255" y2="343"/><line class="cls-8" x1="19" y1="319" x2="394" y2="319"/><line class="cls-12" x1="19" y1="295" x2="232" y2="295"/><line class="cls-9" x1="19" y1="271" x2="363" y2="271"/><line class="cls-13" x1="19" y1="247" x2="497" y2="247"/></g></svg>