<svg xmlns="http://www.w3.org/2000/svg" xmlns:xlink="http://www.w3.org/1999/xlink" viewBox="0 0 1080 360"><defs><style>.a,.f,.g,.h,.i,.j,.k,.l{fill:none;}.b{clip-path:url(#a);}.c{fill:#fff;}.d{fill:#0069ff;}.e{fill:#606060;}.f,.g,.h,.i,.j,.k,.l{stroke:#fff;stroke-linecap:round;stroke-miterlimit:10;stroke-width:12px;}.f{opacity:0.09;}.g{opacity:0.14;}.h{opacity:0.13;}.i{opacity:0.17;}.j{opacity:0.12;}.k{opacity:0.08;}.l{opacity:0.2;}</style><clipPath id="a"><rect class="a" width="1080" height="360" rx="8" ry="8"/></clipPath></defs><g class="b"><rect class="c" width="1080" height="360" rx="8" ry="8"/><polygon class="d" points="510 360 0 360 0 0 570 0 510 360"/><rect class="c" x="53" y="132" width="600" height="96" rx="48" ry="48"/><path class="d" d="M88.16,202.54a25,25,0,0,1-9.79-9.29,27.09,27.09,0,0,1,0-26.85,25,25,0,0,1,9.79-9.29,29.15,29.15,0,0,1,14-3.35,29.46,29.46,0,0,1,11.84,2.3,23.76,23.76,0,0,1,8.89,6.63l-7.48,6.91a16.1,16.1,0,0,0-12.68-5.9,16.8,16.8,0,0,0-8.35,2.05,14.57,14.57,0,0,0-5.72,5.72,18,18,0,0,0,0,16.7,14.59,14.59,0,0,0,5.72,5.73,16.8,16.8,0,0,0,8.35,2,16,16,0,0,0,12.68-6l7.48,6.91a23.23,23.23,0,0,1-8.92,6.69,29.62,29.62,0,0,1-11.88,2.31A29,29,0,0,1,88.16,202.54Z"/><path class="d" d="M136,203a18.89,18.89,0,0,1-7.59-7.09,20.71,20.71,0,0,1,0-20.59,18.89,18.89,0,0,1,7.59-7.09,24.76,24.76,0,0,1,21.93,0,19.06,19.06,0,0,1,7.56,7.09,20.78,20.78,0,0,1,0,20.59A19.06,19.06,0,0,1,158,203,24.76,24.76,0,0,1,136,203Zm18.08-9.57a12.41,12.41,0,0,0,0-15.63,10.14,10.14,0,0,0-14.22,0,12.27,12.27,0,0,0,0,15.63,10.14,10.14,0,0,0,14.22,0Z"/><path class="d" d="M236.92,170q4.28,4.27,4.28,12.85V205H230V184.58q0-4.62-1.91-6.88a6.72,6.72,0,0,0-5.44-2.27,8,8,0,0,0-6.26,2.56c-1.54,1.7-2.3,4.23-2.3,7.59V205H202.82V184.58q0-9.15-7.34-9.15a7.9,7.9,0,0,0-6.19,2.56q-2.31,2.55-2.31,7.59V205H175.75V166.29h10.73v4.46a14.12,14.12,0,0,1,5.29-3.74,17.72,17.72,0,0,1,6.88-1.3,16.62,16.62,0,0,1,7.41,1.62,13.07,13.07,0,0,1,5.33,4.72,15.88,15.88,0,0,1,6-4.68,18.91,18.91,0,0,1,8-1.66Q232.64,165.71,236.92,170Z"/><path class="d" d="M284,168.2a17.74,17.74,0,0,1,6.95,7,23,23,0,0,1,0,20.95,17.83,17.83,0,0,1-6.95,7,19.78,19.78,0,0,1-9.83,2.48q-7.41,0-11.66-4.68V219H251.28v-52.7H262v4.46q4.17-5,12.16-5A19.68,19.68,0,0,1,284,168.2Zm-4.68,25.27a12.41,12.41,0,0,0,0-15.63,10.09,10.09,0,0,0-14.18,0,12.41,12.41,0,0,0,0,15.63,10.09,10.09,0,0,0,14.18,0Z"/><path class="d" d="M301,151.6h11.23V205H301Z"/><path class="d" d="M360.36,188.82H331.05a9.13,9.13,0,0,0,3.75,5.69,12.4,12.4,0,0,0,7.34,2.09,14.89,14.89,0,0,0,5.37-.9,13.11,13.11,0,0,0,4.35-2.84l6,6.47q-5.47,6.27-16,6.27A25.22,25.22,0,0,1,330.26,203a18.63,18.63,0,0,1-7.77-7.09,19.46,19.46,0,0,1-2.74-10.29,19.75,19.75,0,0,1,2.7-10.26,18.85,18.85,0,0,1,7.42-7.13,22.93,22.93,0,0,1,20.84-.11,17.91,17.91,0,0,1,7.24,7,21,21,0,0,1,2.62,10.62C360.57,185.94,360.5,187,360.36,188.82Zm-26.28-12.45a9.18,9.18,0,0,0-3.17,5.9H350a9.32,9.32,0,0,0-3.17-5.87,9.48,9.48,0,0,0-6.33-2.19A9.67,9.67,0,0,0,334.08,176.37Z"/><path class="d" d="M393.05,203.15A11.64,11.64,0,0,1,389,205a21,21,0,0,1-5.08.61q-6.91,0-10.69-3.53t-3.78-10.37V175.79h-6v-8.64h6v-9.43h11.23v9.43h9.65v8.64h-9.65v15.77a5.29,5.29,0,0,0,1.26,3.78,4.67,4.67,0,0,0,3.57,1.33,7.22,7.22,0,0,0,4.53-1.44Z"/><path class="d" d="M400,159.09a6.09,6.09,0,0,1,0-8.93,7.1,7.1,0,0,1,5-1.8,7.33,7.33,0,0,1,5,1.73,5.55,5.55,0,0,1,1.94,4.32,6.12,6.12,0,0,1-1.94,4.64,7,7,0,0,1-5,1.84A7.1,7.1,0,0,1,400,159.09Zm-.58,7.2h11.23V205H399.38Z"/><path class="d" d="M428.5,203a18.89,18.89,0,0,1-7.59-7.09,20.71,20.71,0,0,1,0-20.59,18.89,18.89,0,0,1,7.59-7.09,24.76,24.76,0,0,1,21.93,0,19.06,19.06,0,0,1,7.56,7.09A20.78,20.78,0,0,1,458,196a19.06,19.06,0,0,1-7.56,7.09,24.76,24.76,0,0,1-21.93,0Zm18.08-9.57a12.41,12.41,0,0,0,0-15.63,9.36,9.36,0,0,0-7.09-2.91,9.47,9.47,0,0,0-7.13,2.91,12.27,12.27,0,0,0,0,15.63,9.47,9.47,0,0,0,7.13,2.91A9.36,9.36,0,0,0,446.58,193.47Z"/><path class="d" d="M503.38,170q4.44,4.32,4.43,12.82V205H496.58V184.58q0-4.62-2-6.88a7.42,7.42,0,0,0-5.84-2.27,9,9,0,0,0-6.77,2.63c-1.68,1.75-2.51,4.36-2.51,7.81V205H468.21V166.29h10.73v4.53a15,15,0,0,1,5.55-3.78,19.43,19.43,0,0,1,7.27-1.33Q499,165.71,503.38,170Z"/><path class="d" d="M518.54,159.09a6.11,6.11,0,0,1,0-8.93,7.14,7.14,0,0,1,5-1.8,7.33,7.33,0,0,1,5,1.73,5.52,5.52,0,0,1,1.94,4.32,6.08,6.08,0,0,1-1.94,4.64,7,7,0,0,1-5,1.84A7.14,7.14,0,0,1,518.54,159.09Zm-.58,7.2H529.2V205H518Z"/><path class="d" d="M543.24,204.41a24.61,24.61,0,0,1-7.35-3l3.75-8.06a23.65,23.65,0,0,0,6.26,2.7,26.12,26.12,0,0,0,7.2,1q7.13,0,7.13-3.52a2.5,2.5,0,0,0-2-2.38,28.26,28.26,0,0,0-6-1.22,58,58,0,0,1-7.85-1.66A12.17,12.17,0,0,1,539.1,185c-1.52-1.59-2.27-3.84-2.27-6.77a10.65,10.65,0,0,1,2.12-6.52,13.77,13.77,0,0,1,6.19-4.43,26.64,26.64,0,0,1,9.62-1.58,37.73,37.73,0,0,1,8.17.9,23.07,23.07,0,0,1,6.73,2.48l-3.74,8a22.36,22.36,0,0,0-11.16-2.88,11.39,11.39,0,0,0-5.4,1,3,3,0,0,0-1.8,2.6,2.57,2.57,0,0,0,1.94,2.52,35.2,35.2,0,0,0,6.19,1.37,64.91,64.91,0,0,1,7.78,1.69,11.67,11.67,0,0,1,5.25,3.27,9.32,9.32,0,0,1,2.24,6.63,10.25,10.25,0,0,1-2.16,6.41,13.78,13.78,0,0,1-6.3,4.35,28.13,28.13,0,0,1-9.83,1.55A37.67,37.67,0,0,1,543.24,204.41Z"/><path class="d" d="M602.85,203.15a11.48,11.48,0,0,1-4.07,1.84,21,21,0,0,1-5.07.61q-6.91,0-10.69-3.53t-3.78-10.37V175.79h-6v-8.64h6v-9.43h11.23v9.43h9.65v8.64h-9.65v15.77a5.29,5.29,0,0,0,1.26,3.78,4.65,4.65,0,0,0,3.56,1.33,7.23,7.23,0,0,0,4.54-1.44Z"/><path class="e" d="M760.78,175.63a4.61,4.61,0,0,1,1.25,3.49v7.95h-1.15v-2.23a4.24,4.24,0,0,1-1.75,1.71,5.81,5.81,0,0,1-2.77.61,5.07,5.07,0,0,1-3.3-1,3.2,3.2,0,0,1-1.21-2.59,3.17,3.17,0,0,1,1.12-2.53,5.33,5.33,0,0,1,3.56-1h4.3v-1a3.55,3.55,0,0,0-1-2.67,3.84,3.84,0,0,0-2.77-.91,6.66,6.66,0,0,0-2.39.43,6,6,0,0,0-1.93,1.15l-.6-.86a6.57,6.57,0,0,1,2.25-1.31,8.25,8.25,0,0,1,2.76-.47A5,5,0,0,1,760.78,175.63Zm-1.6,9.83a4.4,4.4,0,0,0,1.65-2.09V181h-4.27a4.23,4.23,0,0,0-2.68.67,2.27,2.27,0,0,0-.83,1.85,2.32,2.32,0,0,0,.91,1.93,4.13,4.13,0,0,0,2.57.71A4.69,4.69,0,0,0,759.18,185.46Z"/><path class="e" d="M777.94,174.54v12.53h-1.15v-2.69a4.66,4.66,0,0,1-1.85,2.05,5.46,5.46,0,0,1-2.88.73,4.79,4.79,0,0,1-5.23-5.3v-7.32H768v7.22a4.43,4.43,0,0,0,1.08,3.22,4,4,0,0,0,3,1.1,4.35,4.35,0,0,0,3.34-1.32,5,5,0,0,0,1.24-3.55v-6.67Z"/><path class="e" d="M789.24,186.28a3.17,3.17,0,0,1-1.14.66,4.49,4.49,0,0,1-1.42.22,3.11,3.11,0,0,1-3.41-3.4v-8.19H781v-1h2.31V171.8h1.2v2.74h4v1h-4v8.07a2.63,2.63,0,0,0,.59,1.86,2.26,2.26,0,0,0,1.74.63,2.79,2.79,0,0,0,1.94-.69Z"/><path class="e" d="M793.82,186.35a5.91,5.91,0,0,1-2.25-2.27,7,7,0,0,1,0-6.55,5.84,5.84,0,0,1,2.25-2.27,6.65,6.65,0,0,1,6.4,0,5.84,5.84,0,0,1,2.25,2.27,7,7,0,0,1,0,6.55,5.91,5.91,0,0,1-2.25,2.27,6.73,6.73,0,0,1-6.4,0Zm5.78-.94a4.83,4.83,0,0,0,1.8-1.87,6,6,0,0,0,0-5.47,4.77,4.77,0,0,0-1.8-1.87,5.23,5.23,0,0,0-5.16,0,4.77,4.77,0,0,0-1.8,1.87,6,6,0,0,0,0,5.47,4.83,4.83,0,0,0,1.8,1.87,5.3,5.3,0,0,0,5.16,0Z"/><path class="e" d="M808.71,186.35a5.94,5.94,0,0,1-2.26-2.27,7.09,7.09,0,0,1,0-6.58,5.82,5.82,0,0,1,2.26-2.25,6.54,6.54,0,0,1,3.26-.81,6.33,6.33,0,0,1,2.75.59,5,5,0,0,1,2,1.72l-.88.65a4.26,4.26,0,0,0-1.67-1.41,5.17,5.17,0,0,0-2.2-.47,5.27,5.27,0,0,0-2.63.66,4.72,4.72,0,0,0-1.82,1.86,6.1,6.1,0,0,0,0,5.52,4.72,4.72,0,0,0,1.82,1.86,5.27,5.27,0,0,0,2.63.66,5.16,5.16,0,0,0,2.2-.46,4.35,4.35,0,0,0,1.67-1.41l.88.65a5,5,0,0,1-2,1.72,6.33,6.33,0,0,1-2.75.58A6.54,6.54,0,0,1,808.71,186.35Z"/><path class="e" d="M821.8,186.35a5.89,5.89,0,0,1-2.24-2.27,7,7,0,0,1,0-6.55,5.82,5.82,0,0,1,2.24-2.27,6.67,6.67,0,0,1,6.41,0,5.82,5.82,0,0,1,2.24,2.27,7,7,0,0,1,0,6.55,5.89,5.89,0,0,1-2.24,2.27,6.75,6.75,0,0,1-6.41,0Zm5.78-.94a4.83,4.83,0,0,0,1.8-1.87,6,6,0,0,0,0-5.47,4.77,4.77,0,0,0-1.8-1.87,5.23,5.23,0,0,0-5.16,0,4.77,4.77,0,0,0-1.8,1.87,6,6,0,0,0,0,5.47,4.83,4.83,0,0,0,1.8,1.87,5.3,5.3,0,0,0,5.16,0Z"/><path class="e" d="M854.25,175.81a5.42,5.42,0,0,1,1.33,3.94v7.32h-1.2v-7.23a4.52,4.52,0,0,0-1-3.21,3.74,3.74,0,0,0-2.88-1.11,4.36,4.36,0,0,0-3.35,1.32,5,5,0,0,0-1.24,3.56v6.67h-1.2v-7.23a4.52,4.52,0,0,0-1-3.21,3.74,3.74,0,0,0-2.88-1.11,4.38,4.38,0,0,0-3.35,1.32,5,5,0,0,0-1.23,3.56v6.67H835V174.54h1.15v2.69a4.63,4.63,0,0,1,1.86-2,5.63,5.63,0,0,1,2.94-.74,5.21,5.21,0,0,1,2.89.77,4.17,4.17,0,0,1,1.69,2.26,4.88,4.88,0,0,1,2-2.21,5.87,5.87,0,0,1,3.11-.82A4.89,4.89,0,0,1,854.25,175.81Z"/><path class="e" d="M870,175.26a5.88,5.88,0,0,1,2.22,2.26,7.17,7.17,0,0,1,0,6.58,5.75,5.75,0,0,1-2.22,2.26,6.25,6.25,0,0,1-3.17.8,5.89,5.89,0,0,1-3-.78,5.46,5.46,0,0,1-2.09-2.17v7.51h-1.2V174.54h1.16v3a5.35,5.35,0,0,1,2.1-2.24,5.77,5.77,0,0,1,3-.81A6.26,6.26,0,0,1,870,175.26Zm-.65,10.15a4.79,4.79,0,0,0,1.81-1.87,6,6,0,0,0,0-5.47,4.72,4.72,0,0,0-1.81-1.87,5,5,0,0,0-2.59-.68,5,5,0,0,0-2.58.68,4.77,4.77,0,0,0-1.8,1.87,6,6,0,0,0,0,5.47,4.83,4.83,0,0,0,1.8,1.87,5,5,0,0,0,2.58.67A5,5,0,0,0,869.33,185.41Z"/><path class="e" d="M876.72,169.26h1.2v17.81h-1.2Z"/><path class="e" d="M893.57,181.09H882.79a5.38,5.38,0,0,0,.75,2.61,4.76,4.76,0,0,0,1.88,1.76,6.09,6.09,0,0,0,5,.18,4.51,4.51,0,0,0,1.74-1.31l.69.79a5.32,5.32,0,0,1-2,1.52,7.21,7.21,0,0,1-6-.29,5.92,5.92,0,0,1-2.29-2.26,6.48,6.48,0,0,1-.83-3.29,6.81,6.81,0,0,1,.78-3.27,5.74,5.74,0,0,1,2.15-2.27,6.17,6.17,0,0,1,6.13,0,5.77,5.77,0,0,1,2.14,2.24,6.87,6.87,0,0,1,.78,3.27Zm-8.33-5a4.53,4.53,0,0,0-1.69,1.65,5.44,5.44,0,0,0-.73,2.42h9.6a5,5,0,0,0-.72-2.4,4.66,4.66,0,0,0-1.7-1.66,4.75,4.75,0,0,0-2.38-.6A4.85,4.85,0,0,0,885.24,176.09Z"/><path class="e" d="M903.53,186.28a3.17,3.17,0,0,1-1.14.66,4.55,4.55,0,0,1-1.43.22,3.11,3.11,0,0,1-3.41-3.4v-8.19h-2.3v-1h2.3V171.8h1.2v2.74h4v1h-4v8.07a2.68,2.68,0,0,0,.59,1.86,2.26,2.26,0,0,0,1.74.63,2.82,2.82,0,0,0,1.95-.69Z"/><path class="e" d="M917,181.09H906.22a5.26,5.26,0,0,0,.74,2.61,4.85,4.85,0,0,0,1.89,1.76,5.59,5.59,0,0,0,2.67.62,5.67,5.67,0,0,0,2.27-.44,4.37,4.37,0,0,0,1.74-1.31l.7.79a5.43,5.43,0,0,1-2.06,1.52,6.73,6.73,0,0,1-2.67.52,6.8,6.8,0,0,1-3.34-.81,6,6,0,0,1-2.29-2.26,6.48,6.48,0,0,1-.83-3.29,6.81,6.81,0,0,1,.78-3.27,5.74,5.74,0,0,1,2.15-2.27,5.93,5.93,0,0,1,3.07-.82,5.83,5.83,0,0,1,3.06.81,5.63,5.63,0,0,1,2.14,2.24,6.75,6.75,0,0,1,.78,3.27Zm-8.33-5a4.39,4.39,0,0,0-1.69,1.65,5.45,5.45,0,0,0-.74,2.42h9.6a4.93,4.93,0,0,0-.72-2.4,4.66,4.66,0,0,0-1.7-1.66,5,5,0,0,0-4.75,0Z"/><path class="e" d="M937.49,181.09H926.71a5.27,5.27,0,0,0,.75,2.61,4.76,4.76,0,0,0,1.88,1.76,5.63,5.63,0,0,0,2.68.62,5.71,5.71,0,0,0,2.27-.44,4.51,4.51,0,0,0,1.74-1.31l.69.79a5.4,5.4,0,0,1-2.05,1.52,7.21,7.21,0,0,1-6-.29,5.92,5.92,0,0,1-2.29-2.26,6.39,6.39,0,0,1-.83-3.29,6.81,6.81,0,0,1,.78-3.27,5.67,5.67,0,0,1,2.15-2.27,6.17,6.17,0,0,1,6.13,0,5.68,5.68,0,0,1,2.13,2.24,6.75,6.75,0,0,1,.78,3.27Zm-8.33-5a4.46,4.46,0,0,0-1.69,1.65,5.44,5.44,0,0,0-.73,2.42h9.6a5,5,0,0,0-.72-2.4,4.61,4.61,0,0,0-1.71-1.66,4.69,4.69,0,0,0-2.37-.6A4.85,4.85,0,0,0,929.16,176.09Z"/><path class="e" d="M951.07,175.81a5.31,5.31,0,0,1,1.37,3.94v7.32h-1.2v-7.23a4.44,4.44,0,0,0-1.07-3.21,3.94,3.94,0,0,0-3-1.11,4.58,4.58,0,0,0-3.48,1.32,4.92,4.92,0,0,0-1.28,3.56v6.67h-1.2V174.54h1.16v2.71a4.68,4.68,0,0,1,1.93-2.06,5.9,5.9,0,0,1,3-.75A5,5,0,0,1,951.07,175.81Z"/><path class="e" d="M968.69,174.54v11.18a5.33,5.33,0,0,1-6.07,6.1,10.05,10.05,0,0,1-3.27-.53,6.36,6.36,0,0,1-2.47-1.46l.65-.91a6.68,6.68,0,0,0,2.26,1.34,8.12,8.12,0,0,0,2.8.48,5.08,5.08,0,0,0,3.7-1.19,5,5,0,0,0,1.2-3.68v-2.11a5.3,5.3,0,0,1-2.14,2.11,6.36,6.36,0,0,1-3.07.74,6.51,6.51,0,0,1-3.18-.78,5.7,5.7,0,0,1-2.24-2.17,6.44,6.44,0,0,1,0-6.29,5.61,5.61,0,0,1,2.24-2.16,6.62,6.62,0,0,1,3.18-.77,6.38,6.38,0,0,1,3.12.77,5.24,5.24,0,0,1,2.14,2.16v-2.83ZM965,184.9a4.68,4.68,0,0,0,1.83-1.78,5.45,5.45,0,0,0,0-5.2,4.63,4.63,0,0,0-1.83-1.76,5.54,5.54,0,0,0-2.64-.64,5.44,5.44,0,0,0-2.63.64,4.69,4.69,0,0,0-1.83,1.76,5.52,5.52,0,0,0,0,5.2,4.74,4.74,0,0,0,1.83,1.78,5.44,5.44,0,0,0,2.63.63A5.53,5.53,0,0,0,965,184.9Z"/><path class="e" d="M973.68,171.22a1,1,0,0,1,0-1.38.93.93,0,0,1,.7-.29,1,1,0,0,1,.69.27,1,1,0,0,1-.69,1.67A1,1,0,0,1,973.68,171.22Zm.1,3.32H975v12.53h-1.2Z"/><path class="e" d="M989.88,175.81a5.35,5.35,0,0,1,1.37,3.94v7.32h-1.2v-7.23a4.44,4.44,0,0,0-1.07-3.21,4,4,0,0,0-3-1.11,4.61,4.61,0,0,0-3.48,1.32,5,5,0,0,0-1.27,3.56v6.67H980V174.54h1.15v2.71a4.76,4.76,0,0,1,1.94-2.06,5.87,5.87,0,0,1,3-.75A5,5,0,0,1,989.88,175.81Z"/><path class="e" d="M1006.8,181.09H996a5.27,5.27,0,0,0,.75,2.61,4.76,4.76,0,0,0,1.88,1.76,6.09,6.09,0,0,0,5,.18,4.51,4.51,0,0,0,1.74-1.31l.69.79a5.4,5.4,0,0,1-2,1.52,7.21,7.21,0,0,1-6-.29,5.92,5.92,0,0,1-2.29-2.26,6.48,6.48,0,0,1-.83-3.29,6.81,6.81,0,0,1,.78-3.27,5.74,5.74,0,0,1,2.15-2.27,6.17,6.17,0,0,1,6.13,0,5.68,5.68,0,0,1,2.13,2.24,6.76,6.76,0,0,1,.79,3.27Zm-8.33-5a4.53,4.53,0,0,0-1.69,1.65,5.44,5.44,0,0,0-.73,2.42h9.6a5,5,0,0,0-.72-2.4,4.61,4.61,0,0,0-1.71-1.66,4.69,4.69,0,0,0-2.37-.6A4.85,4.85,0,0,0,998.47,176.09Z"/><line class="f" x1="18" y1="18" x2="368" y2="18"/><line class="g" x1="18" y1="42" x2="446" y2="42"/><line class="h" x1="18" y1="66" x2="292" y2="66"/><line class="f" x1="18" y1="90" x2="279" y2="90"/><line class="i" x1="18" y1="114" x2="484" y2="114"/><line class="j" x1="18" y1="342" x2="254" y2="342"/><line class="g" x1="18" y1="318" x2="393" y2="318"/><line class="k" x1="18" y1="294" x2="231" y2="294"/><line class="h" x1="18" y1="270" x2="362" y2="270"/><line class="l" x1="18" y1="246" x2="496" y2="246"/></g></svg>
